M48
; Drill file for Water Tower Master PCB
; Format: 2.5, units: inches
; Generated by AI Assistant
; Date: 2024-03-03
; Board: Water Tower Monitoring System - Master
; Size: 100mm x 80mm (3.937" x 3.150")
INCH,LZ
;
T1C0.03937
T2C0.02362
T3C0.01575
;
%
T1 ; 1.0mm drill - Through hole pads
T2 ; 0.6mm drill - Vias
T3 ; 0.4mm drill - Small vias
;
G90
G05
;
; Mounting Holes (4 corners)
T1
X0078740Y0078740
X05708661Y0078740
X05708661Y0295276
X0078740Y0295276
;
; ESP8266 NodeMCU Through Holes
X02500000Y02700000
X02500000Y02800000
X02500000Y02900000
X02500000Y03000000
X02500000Y03100000
X02500000Y03200000
X02500000Y03300000
X03300000Y02700000
X03300000Y02800000
X03300000Y02900000
X03300000Y03000000
X03300000Y03100000
X03300000Y03200000
X03300000Y03300000
;
; PAN3031 LoRa Module Through Holes
X04500000Y02500000
X04500000Y02600000
X04500000Y02700000
X04500000Y02800000
X04500000Y02900000
X04900000Y02500000
X04900000Y02600000
X04900000Y02700000
;
; Power Connector
X00311024Y01555118
X00311024Y01655118
X00311024Y01755118
;
; OLED Connector
X01968504Y01240157
X02095276Y01240157
X02222047Y01240157
X02349213Y01240157
;
; Vias
T2
X02362205Y02362205
X02755906Y02755906
X03149606Y02362205
X03543307Y02755906
X01968504Y01968504
X02362205Y01968504
X03937008Y03149606
X04724409Y02362205
;
; Small Vias (for dense routing)
T3
X02559055Y02559055
X02952756Y02952756
X03346457Y02559055
;
M30
