G04 Gerber file generated by AI Assistant for Water Tower Master PCB*
G04 Board: Water Tower Monitoring System - Master*
G04 Layer: F.SilkS (Top Silkscreen)*
G04 Date: 2024-03-03*
G04 Format: 2.5*
%FSLAX25Y25*%
%MOIN*%
%LPD*%
%ADD10C,0.010000*%
%ADD11R,0.010000X0.010000*%
%ADD12O,0.023622X0.035433*%

%TF.GenerationSoftware,KiCad,PCBNEW,2021*%
%TF.ProjectId,water_tower_master*%
%TF.SameCoordinates,All*%
%TF.FileFunction,1,1,0,0,0*%
%TF.FilePolarity,Positive*%

D10*
D11*
D12*

G54D10*

G04 Project Name*
G01 X02362205 Y00157480D02*
G01 X02362205 Y00167323D01*
G01 X02460630 Y00167323D01*
G01 X02460630 Y00157480D01*
G01 X02362205 Y00157480D01*

G04 Component Designators*
G01 X03149606 Y03149606D02*
G01 X03149606 Y03169291D01*
G01 X03169291 Y03169291D01*
G01 X03169291 Y03149606D01*
G01 X03149606 Y03149606D01*

G04 U1 - AMS1117*
G01 X03937008 Y03346457D02*
G01 X03937008 Y03366142D01*
G01 X03956693 Y03366142D01*
G01 X03956693 Y03346457D01*
G01 X03937008 Y03346457D01*

G04 U2 - ESP8266*
G01 X02755906 Y03543307D02*
G01 X02755906 Y03562992D01*
G01 X02775591 Y03562992D01*
G01 X02775591 Y03543307D01*
G01 X02755906 Y03543307D01*

G04 U3 - PAN3031*
G01 X04724409 Y03543307D02*
G01 X04724409 Y03562992D01*
G01 X04744094 Y03562992D01*
G01 X04744094 Y03543307D01*
G01 X04724409 Y03543307D01*

G04 J1 - Power Connector*
G01 X00787402 Y00374016D02*
G01 X00787402 Y00375984D01*
G01 X00797244 Y00375984D01*
G01 X00797244 Y00374016D01*
G01 X00787402 Y00374016D01*

G04 J2 - OLED Connector*
G01 X01968504 Y00314961D02*
G01 X01968504 Y00316929D01*
G01 X01978346 Y00316929D01*
G01 X01978346 Y00314961D01*
G01 X01968504 Y00314961D01*

G04 R1, C1 Designators*
G01 X01968504 Y00216535D02*
G01 X01968504 Y00218504D01*
G01 X01978346 Y00218504D01*
G01 X01978346 Y00216535D01*
G01 X01968504 Y00216535D01*

G04 Version*
G01 X05511811 Y00295276D02*
G01 X05511811 Y00297244D01*
G01 X05531496 Y00297244D01*
G01 X05531496 Y00295276D01*
G01 X05511811 Y00295276D01*

G04 Antenna Keepout Warning*
G01 X02755906 Y00236220D02*
G01 X02755906 Y00238189D01*
G01 X02775591 Y00238189D01*
G01 X02775591 Y00236220D01*
G01 X02755906 Y00236220D01*

M02*
