G04 Gerber file generated by AI Assistant for Water Tower Master PCB*
G04 Board: Water Tower Monitoring System - Master*
G04 Layer: F.Mask (Top Solder Mask)*
G04 Date: 2024-03-03*
G04 Format: 2.5*
%FSLAX25Y25*%
%MOIN*%
%LPD*%
%ADD10C,0.010000*%
%ADD11R,0.010000X0.010000*%
%ADD12O,0.023622X0.035433*%
%ADD13R,0.027559X0.035433*%
%ADD14R,0.070866X0.023622*%
%ADD15O,0.066929X0.066929*

%TF.GenerationSoftware,KiCad,PCBNEW,2021*%
%TF.ProjectId,water_tower_master*%
%TF.SameCoordinates,All*%
%TF.FileFunction,1,1,0,0,0*%
%TF.FilePolarity,Negative*%

D10*
D11*
D12*
D13*
D14*
D15*

G54D15*

G04 ESP8266 NodeMCU Pads (Openings)*
G01 X03149606 Y03000000D02*
G01 X03149606 Y03098425D01*
G01 X03248031 Y03098425D01*
G01 X03248031 Y03000000D01*
G01 X03149606 Y03000000D01*

G01 X03149606 Y02900000D02*
G01 X03149606 Y02998425D01*
G01 X03248031 Y02998425D01*
G01 X03248031 Y02900000D01*
G01 X03149606 Y02900000D01*

G01 X03149606 Y02800000D02*
G01 X03149606 Y02898425D01*
G01 X03248031 Y02898425D01*
G01 X03248031 Y02800000D01*
G01 X03149606 Y02800000D01*

G01 X03149606 Y02700000D02*
G01 X03149606 Y02798425D01*
G01 X03248031 Y02798425D01*
G01 X03248031 Y02700000D01*
G01 X03149606 Y02700000D01*

G01 X03149606 Y02600000D02*
G01 X03149606 Y02698425D01*
G01 X03248031 Y02698425D01*
G01 X03248031 Y02600000D01*
G01 X03149606 Y02600000D01*

G01 X03149606 Y02500000D02*
G01 X03149606 Y02598425D01*
G01 X03248031 Y02598425D01*
G01 X03248031 Y02500000D01*
G01 X03149606 Y02500000D01*

G01 X03149606 Y02400000D02*
G01 X03149606 Y02498425D01*
G01 X03248031 Y02498425D01*
G01 X03248031 Y02400000D01*
G01 X03149606 Y02400000D01*

G01 X04921260 Y02400000D02*
G01 X04921260 Y02498425D01*
G01 X05019685 Y02498425D01*
G01 X05019685 Y02400000D01*
G01 X04921260 Y02400000D01*

G01 X04921260 Y02300000D02*
G01 X04921260 Y02398425D01*
G01 X05019685 Y02398425D01*
G01 X05019685 Y02300000D01*
G01 X04921260 Y02300000D01*

G01 X04921260 Y02200000D02*
G01 X04921260 Y02298425D01*
G01 X05019685 Y02298425D01*
G01 X05019685 Y02200000D01*
G01 X04921260 Y02200000D01*

G01 X04921260 Y02100000D02*
G01 X04921260 Y02198425D01*
G01 X05019685 Y02198425D01*
G01 X05019685 Y02100000D01*
G01 X04921260 Y02100000D01*

G01 X04921260 Y02000000D02*
G01 X04921260 Y02098425D01*
G01 X05019685 Y02098425D01*
G01 X05019685 Y02000000D01*
G01 X04921260 Y02000000D01*

G01 X04921260 Y01900000D02*
G01 X04921260 Y01998425D01*
G01 X05019685 Y01998425D01*
G01 X05019685 Y01900000D01*
G01 X04921260 Y01900000D01*

G04 AMS1117-3.3 LDO Pads*
G54D14*
G01 X03937008 Y03149606D02*
G01 X03937008 Y03248031D01*
G01 X04035433 Y03248031D01*
G01 X04035433 Y03149606D01*
G01 X03937008 Y03149606D01*

G01 X03937008 Y03000000D02*
G01 X03937008 Y03098425D01*
G01 X04035433 Y03098425D01*
G01 X04035433 Y03000000D01*
G01 X03937008 Y03000000D01*

G01 X03937008 Y02850394D02*
G01 X03937008 Y02948819D01*
G01 X04035433 Y02948819D01*
G01 X04035433 Y02850394D01*
G01 X03937008 Y02850394D01*

G04 0805 Component Pads*
G54D13*
G01 X01968504 Y01968504D02*
G01 X01968504 Y02031496D01*
G01 X02078740 Y02031496D01*
G01 X02078740 Y01968504D01*
G01 X01968504 Y01968504D01*

G01 X02362205 Y01968504D02*
G01 X02362205 Y02031496D01*
G01 X02472441 Y02031496D01*
G01 X02472441 Y01968504D01*
G01 X02362205 Y01968504D01*

G04 Connector Pads*
G54D15*
G01 X00787402 Y03937008D02*
G01 X00787402 Y04035433D01*
G01 X00885827 Y04035433D01*
G01 X00885827 Y03937008D01*
G01 X00787402 Y03937008D01*

G01 X00787402 Y03838583D02*
G01 X00787402 Y03937008D01*
G01 X00885827 Y03937008D01*
G01 X00885827 Y03838583D01*
G01 X00787402 Y03838583D01*

G01 X00787402 Y03740157D02*
G01 X00787402 Y03838583D01*
G01 X00885827 Y03838583D01*
G01 X00885827 Y03740157D01*
G01 X00787402 Y03740157D01*

G04 OLED Connector Pads*
G01 X01587402 Y03149606D02*
G01 X01587402 Y03248031D01*
G01 X01685827 Y03248031D01*
G01 X01685827 Y03149606D01*
G01 X01587402 Y03149606D01*

G01 X01841339 Y03149606D02*
G01 X01841339 Y03248031D01*
G01 X01939764 Y03248031D01*
G01 X01939764 Y03149606D01*
G01 X01841339 Y03149606D01*

G01 X02095276 Y03149606D02*
G01 X02095276 Y03248031D01*
G01 X02193701 Y03248031D01*
G01 X02193701 Y03149606D01*
G01 X02095276 Y03149606D01*

G01 X02349213 Y03149606D02*
G01 X02349213 Y03248031D01*
G01 X02447638 Y03248031D01*
G01 X02447638 Y03149606D01*
G01 X02349213 Y03149606D01*

M02*
